{"glyphs":{"0":{"ha":772,"x_min":0,"x_max":0,"o":"m 385 992 b 29 490 154 992 29 818 b 385 -19 29 154 153 -19 b 743 490 618 -19 743 156 b 385 992 743 819 617 992 z m 226 496 b 383 829 226 594 229 829 b 546 496 533 829 546 632 b 385 143 546 365 542 143 b 226 496 228 143 226 375 z "},"1":{"ha":772,"x_min":0,"x_max":0,"o":"m 388 972 b 114 779 369 844 272 779 l 103 779 l 103 631 l 347 631 l 347 0 l 544 0 l 544 972 z "},"2":{"ha":772,"x_min":0,"x_max":0,"o":"m 404 992 b 51 617 188 992 51 842 l 51 599 l 240 599 b 394 822 242 736 297 822 b 540 672 485 822 540 760 b 406 481 540 590 483 532 b 158 300 299 410 221 358 b 29 0 74 219 29 124 l 743 0 l 743 169 l 283 169 b 506 354 321 222 369 268 b 693 521 608 419 657 464 b 738 688 722 568 738 622 b 404 992 738 876 583 992 z "},"3":{"ha":772,"x_min":0,"x_max":0,"o":"m 385 992 b 49 656 190 992 56 860 l 236 656 b 386 829 236 785 313 829 b 524 700 460 829 524 782 b 351 578 524 624 463 578 b 317 579 339 578 329 578 l 317 440 l 347 440 b 542 296 469 440 542 408 b 383 143 542 206 475 143 b 213 335 282 143 218 213 l 25 335 l 25 324 b 386 -19 25 114 165 -19 b 747 300 578 -19 747 99 b 575 521 747 408 683 497 l 575 524 b 711 722 663 549 711 626 b 385 992 711 896 540 992 z "},"4":{"ha":772,"x_min":0,"x_max":0,"o":"m 444 972 l 22 406 l 22 225 l 433 225 l 433 0 l 621 0 l 621 225 l 750 225 l 750 388 l 621 388 l 621 972 z m 433 725 l 433 388 l 178 388 l 429 725 z "},"5":{"ha":772,"x_min":0,"x_max":0,"o":"m 151 972 l 56 435 l 233 435 b 381 513 271 488 311 513 b 550 331 492 513 550 428 b 382 143 550 229 482 143 b 222 289 296 143 232 200 l 25 289 b 390 -19 28 93 183 -19 b 747 331 592 -19 747 138 b 447 661 747 511 640 661 b 257 586 363 661 306 635 l 254 589 l 293 810 l 694 810 l 694 972 z "},"6":{"ha":772,"x_min":0,"x_max":0,"o":"m 411 992 b 29 483 128 992 29 711 b 403 -19 29 192 138 -19 b 743 336 604 -19 743 136 b 443 653 743 542 593 653 b 225 544 347 653 279 621 l 222 547 b 408 843 231 703 288 843 b 539 722 471 843 524 796 l 726 722 b 411 992 704 892 582 992 z m 240 324 b 396 504 240 431 301 504 b 546 321 500 504 546 411 b 397 143 546 229 489 143 b 240 324 301 143 240 228 z "},"7":{"ha":772,"x_min":0,"x_max":0,"o":"m 54 972 l 54 789 l 515 789 b 189 0 331 567 211 288 l 400 0 b 718 803 404 268 514 622 l 718 972 z "},"8":{"ha":772,"x_min":0,"x_max":0,"o":"m 388 992 b 60 726 228 992 60 900 b 203 526 60 628 111 551 l 203 524 b 19 285 88 496 19 407 b 389 -19 19 74 204 -19 b 753 286 572 -19 753 83 b 571 524 753 406 692 494 l 571 526 b 713 729 664 558 713 635 b 388 992 713 831 625 992 z m 239 708 b 386 843 239 797 311 843 b 533 708 508 843 533 761 b 388 581 533 626 471 581 b 239 708 308 581 239 625 z m 217 294 b 388 449 217 392 290 449 b 556 293 486 449 556 382 b 389 129 556 197 485 129 b 217 294 292 129 217 196 z "},"9":{"ha":772,"x_min":0,"x_max":0,"o":"m 371 992 b 29 636 160 992 29 829 b 328 319 29 413 200 319 b 547 428 425 319 496 354 l 550 425 b 364 129 539 236 469 129 b 233 250 300 129 247 179 l 46 250 b 361 -19 68 79 192 -19 b 743 490 638 -19 743 250 b 371 992 743 788 629 992 z m 226 651 b 375 829 226 742 282 829 b 532 649 471 829 532 744 b 375 468 532 550 479 468 b 226 651 274 468 226 560 z "},"\u0000":{"ha":0,"x_min":0,"x_max":0,"o":""},"\r":{"ha":386,"x_min":0,"x_max":0,"o":""}," ":{"ha":386,"x_min":0,"x_max":0,"o":""},"!":{"ha":386,"x_min":0,"x_max":0,"o":"m 90 992 l 90 725 l 143 297 l 242 297 l 296 725 l 296 992 z m 85 214 l 85 0 l 303 0 l 303 214 z "},"\"":{"ha":643,"x_min":0,"x_max":0,"o":"m 118 992 l 118 546 l 267 546 l 267 992 z m 376 992 l 376 546 l 525 546 l 525 992 z "},"#":{"ha":772,"x_min":0,"x_max":0,"o":"m 258 972 l 219 697 l 88 697 l 88 572 l 203 572 l 178 400 l 46 400 l 46 275 l 161 275 l 122 0 l 257 0 l 296 275 l 429 275 l 392 0 l 526 0 l 564 275 l 685 275 l 685 400 l 582 400 l 606 572 l 726 572 l 726 697 l 624 697 l 661 972 l 526 972 l 489 697 l 354 697 l 393 972 z m 471 572 l 447 400 l 313 400 l 338 572 z "},"$":{"ha":772,"x_min":0,"x_max":0,"o":"m 344 1015 b 22 718 156 1003 24 892 b 251 456 21 578 103 501 b 344 429 288 444 331 435 l 344 139 b 196 318 254 157 196 222 l 196 322 l -1 322 b 344 -24 19 107 135 -8 l 344 -142 l 426 -142 l 426 -24 b 774 275 681 -8 774 163 b 426 607 774 456 682 550 l 426 853 b 542 719 489 853 540 793 l 739 719 b 426 1015 729 893 615 994 l 426 1122 l 344 1122 z m 219 738 b 344 853 219 808 275 853 l 344 626 b 219 738 258 647 219 675 z m 426 406 b 576 275 539 376 576 344 b 426 139 576 199 513 149 z "},"%":{"ha":1389,"x_min":0,"x_max":0,"o":"m 928 1003 l 353 -31 l 474 -31 l 1046 1003 z m 340 992 b 104 717 182 992 104 874 b 333 450 104 542 181 450 b 568 713 482 450 568 543 b 340 992 568 871 507 992 z m 246 713 b 340 888 246 790 256 888 b 426 713 422 888 426 768 b 335 554 426 628 410 554 b 246 713 247 554 246 650 z m 1057 522 b 821 254 896 522 821 406 b 1050 -19 821 88 892 -19 b 1285 250 1201 -19 1285 85 b 1057 522 1285 426 1208 522 z m 963 253 b 1056 418 963 308 965 418 b 1143 253 1117 418 1143 361 b 1051 85 1143 154 1122 85 b 963 253 964 85 963 188 z "},"&":{"ha":951,"x_min":0,"x_max":0,"o":"m 432 1003 b 172 776 292 1003 172 910 b 267 565 172 711 193 651 b 44 278 119 496 44 394 b 365 -19 44 96 181 -19 b 644 99 478 -19 565 21 l 725 0 l 967 0 l 765 235 b 861 479 814 297 850 378 l 690 479 b 654 361 685 439 672 393 l 526 518 b 703 765 643 581 703 663 b 432 1003 703 922 578 1003 z m 351 783 b 439 871 351 836 393 871 b 531 776 490 871 531 828 b 429 635 531 715 500 678 b 351 783 365 707 351 742 z m 232 274 b 371 438 232 343 282 400 l 540 231 b 374 143 483 167 432 143 b 232 274 300 143 232 201 z "},"’":{"ha":386,"x_min":0,"x_max":0,"o":"m 94 992 l 94 778 l 186 778 l 186 775 b 94 638 186 706 161 660 l 94 546 b 292 771 210 561 292 654 l 292 992 z "},"(":{"ha":411,"x_min":0,"x_max":0,"o":"m 256 1015 b 72 372 129 831 72 578 b 256 -253 72 164 139 -60 l 419 -253 b 269 386 318 -51 269 158 b 421 1015 269 611 321 825 z "},")":{"ha":411,"x_min":0,"x_max":0,"o":"m -8 1015 b 142 375 92 819 142 606 b -10 -253 142 153 92 -60 l 156 -253 b 339 389 285 -65 339 194 b 156 1015 339 592 275 819 z "},"*":{"ha":565,"x_min":0,"x_max":0,"o":"m 225 992 l 225 818 l 68 879 l 31 772 l 192 718 l 89 582 l 182 514 l 279 657 l 382 514 l 474 582 l 371 718 l 535 772 l 497 879 l 336 818 l 336 992 z "},"+":{"ha":833,"x_min":0,"x_max":0,"o":"m 343 701 l 343 425 l 67 425 l 67 276 l 343 276 l 343 0 l 492 0 l 492 276 l 768 276 l 768 425 l 492 425 l 492 701 z "},",":{"ha":386,"x_min":0,"x_max":0,"o":"m 85 214 l 85 0 l 185 0 l 185 -8 b 86 -131 185 -61 146 -119 l 86 -231 b 303 -3 225 -208 303 -110 l 303 214 z "},"-":{"ha":565,"x_min":0,"x_max":0,"o":"m 74 464 l 74 294 l 492 294 l 492 464 z "},".":{"ha":386,"x_min":0,"x_max":0,"o":"m 83 214 l 83 0 l 301 0 l 301 214 z "},"/":{"ha":515,"x_min":0,"x_max":0,"o":"m 372 1015 l -15 -24 l 143 -24 l 531 1015 z "},":":{"ha":386,"x_min":0,"x_max":0,"o":"m 85 706 l 85 492 l 303 492 l 303 706 z m 85 214 l 85 0 l 303 0 l 303 214 z "},";":{"ha":386,"x_min":0,"x_max":0,"o":"m 85 706 l 85 492 l 303 492 l 303 706 z m 85 214 l 85 0 l 185 0 l 185 -7 b 86 -131 185 -64 143 -121 l 86 -231 b 303 0 213 -211 303 -119 l 303 214 z "},"<":{"ha":833,"x_min":0,"x_max":0,"o":"m 769 714 l 64 433 l 64 269 l 769 -11 l 769 149 l 260 351 l 769 554 z "},"=":{"ha":833,"x_min":0,"x_max":0,"o":"m 67 574 l 67 425 l 768 425 l 768 574 z m 67 276 l 67 128 l 768 128 l 768 276 z "},">":{"ha":833,"x_min":0,"x_max":0,"o":"m 64 554 l 574 351 l 64 149 l 64 -11 l 769 269 l 769 433 l 64 714 z "},"?":{"ha":772,"x_min":0,"x_max":0,"o":"m 382 1015 b 44 672 183 1015 49 876 l 249 672 b 392 853 250 782 300 853 b 510 728 468 853 510 810 b 411 581 510 661 476 631 b 288 338 326 517 288 447 l 288 297 l 475 297 l 475 338 b 561 476 475 393 514 442 l 607 510 b 728 746 660 549 728 606 b 382 1015 728 857 639 1015 z m 268 214 l 268 0 l 486 0 l 486 214 z "},"@":{"ha":1111,"x_min":0,"x_max":0,"o":"m 578 1015 b 50 496 289 1015 50 789 b 585 -24 50 200 289 -24 b 1008 201 753 -24 908 51 l 892 201 b 593 88 819 129 707 88 b 183 493 349 88 183 256 b 576 904 183 729 339 904 b 953 563 799 904 953 774 b 789 307 953 413 868 307 b 765 339 774 307 765 319 b 779 410 765 357 771 378 l 864 757 l 750 757 l 728 682 b 565 779 700 747 633 779 b 263 426 378 779 263 594 b 481 188 263 294 364 188 b 631 268 543 188 597 214 l 633 268 b 733 189 638 219 679 189 b 1061 592 826 189 1061 310 b 578 1015 1061 846 831 1015 z m 404 443 b 575 647 404 543 481 647 b 683 529 640 647 683 593 b 513 319 683 431 611 319 b 404 443 444 319 404 372 z "},"A":{"ha":951,"x_min":0,"x_max":0,"o":"m 367 992 l -10 0 l 211 0 l 289 221 l 660 221 l 735 0 l 961 0 l 590 992 z m 478 747 l 603 383 l 346 383 l 475 747 z "},"B":{"ha":978,"x_min":0,"x_max":0,"o":"m 96 992 l 96 0 l 576 0 b 926 288 761 0 926 90 b 744 539 926 411 867 504 b 879 747 829 581 879 644 b 564 992 879 918 767 992 z m 314 590 l 314 822 l 521 822 b 668 708 615 822 668 788 b 536 590 668 628 615 590 z m 314 169 l 314 442 l 553 442 b 708 300 651 442 708 396 b 549 169 708 211 650 169 z "},"C":{"ha":1029,"x_min":0,"x_max":0,"o":"m 540 1015 b 53 492 233 1015 53 785 b 540 -24 53 201 238 -24 b 976 382 781 -24 954 132 l 765 382 b 540 160 747 240 665 160 b 271 492 358 160 271 306 b 540 832 271 692 363 832 b 757 658 649 832 742 758 l 968 658 b 540 1015 943 882 763 1015 z "},"D":{"ha":1029,"x_min":0,"x_max":0,"o":"m 96 992 l 96 0 l 526 0 b 974 501 804 0 974 189 b 521 992 974 814 796 992 z m 314 183 l 314 808 l 469 808 b 756 482 651 808 756 718 b 507 183 756 268 643 183 z "},"E":{"ha":900,"x_min":0,"x_max":0,"o":"m 96 992 l 96 0 l 849 0 l 849 183 l 314 183 l 314 426 l 794 426 l 794 596 l 314 596 l 314 808 l 838 808 l 838 992 z "},"F":{"ha":824,"x_min":0,"x_max":0,"o":"m 96 992 l 96 0 l 314 0 l 314 410 l 729 410 l 729 579 l 314 579 l 314 808 l 793 808 l 793 992 z "},"G":{"ha":1054,"x_min":0,"x_max":0,"o":"m 540 1015 b 53 492 233 1015 53 786 b 540 -24 53 203 238 -24 b 813 113 646 -24 740 19 l 835 0 l 974 0 l 974 536 l 557 536 l 557 374 l 776 374 b 540 160 763 231 679 160 b 271 492 350 160 271 318 b 540 832 271 686 360 832 b 750 665 643 832 724 776 l 958 665 b 540 1015 936 882 753 1015 z "},"H":{"ha":1029,"x_min":0,"x_max":0,"o":"m 96 992 l 96 0 l 314 0 l 314 428 l 715 428 l 715 0 l 933 0 l 933 992 l 715 992 l 715 611 l 314 611 l 314 992 z "},"I":{"ha":410,"x_min":0,"x_max":0,"o":"m 96 992 l 96 0 l 314 0 l 314 992 z "},"J":{"ha":772,"x_min":0,"x_max":0,"o":"m 458 992 l 458 314 b 343 160 458 240 451 160 b 217 321 260 160 217 204 l 217 369 l 19 369 l 19 281 b 349 -24 19 96 147 -24 b 676 311 567 -24 676 94 l 676 992 z "},"K":{"ha":1003,"x_min":0,"x_max":0,"o":"m 96 992 l 96 0 l 314 0 l 314 319 l 439 446 l 738 0 l 1011 0 l 586 600 l 974 992 l 701 992 l 314 581 l 314 992 z "},"L":{"ha":824,"x_min":0,"x_max":0,"o":"m 96 992 l 96 0 l 797 0 l 797 183 l 314 183 l 314 992 z "},"M":{"ha":1260,"x_min":0,"x_max":0,"o":"m 96 992 l 96 0 l 300 0 l 300 696 l 303 696 l 546 0 l 714 0 l 957 703 l 960 703 l 960 0 l 1164 0 l 1164 992 l 857 992 l 638 310 l 635 310 l 403 992 z "},"N":{"ha":1029,"x_min":0,"x_max":0,"o":"m 96 992 l 96 0 l 300 0 l 300 664 l 303 664 l 715 0 l 933 0 l 933 992 l 729 992 l 729 326 l 726 326 l 313 992 z "},"O":{"ha":1081,"x_min":0,"x_max":0,"o":"m 540 1015 b 53 492 233 1015 53 786 b 540 -24 53 203 238 -24 b 1028 492 844 -24 1028 203 b 540 1015 1028 792 842 1015 z m 271 492 b 539 832 271 683 357 832 b 810 492 725 832 810 682 b 540 160 810 311 725 160 b 271 492 358 160 271 307 z "},"P":{"ha":926,"x_min":0,"x_max":0,"o":"m 96 992 l 96 0 l 314 0 l 314 356 l 546 356 b 886 674 774 356 886 494 b 544 992 886 850 776 992 z m 314 525 l 314 822 l 489 822 b 675 674 617 822 675 775 b 488 525 675 568 613 525 z "},"Q":{"ha":1081,"x_min":0,"x_max":0,"o":"m 540 1015 b 53 492 233 1015 53 786 b 540 -24 53 207 233 -24 b 781 35 636 -24 715 -3 l 921 -93 l 1022 14 l 899 126 b 1028 492 985 225 1028 350 b 540 1015 1028 796 838 1015 z m 271 492 b 539 832 271 688 361 832 b 810 492 718 832 810 692 b 749 264 810 400 789 319 l 636 367 l 535 258 l 628 174 b 542 160 613 161 588 160 b 271 492 333 160 271 342 z "},"R":{"ha":1003,"x_min":0,"x_max":0,"o":"m 96 992 l 96 0 l 314 0 l 314 388 l 533 388 b 704 172 671 388 694 311 b 732 0 710 94 715 38 l 950 0 b 911 182 928 32 915 88 b 764 467 907 275 903 428 l 764 469 b 921 718 868 511 921 593 b 631 992 921 871 806 992 z m 314 543 l 314 822 l 553 822 b 703 685 649 822 703 783 b 554 543 703 581 646 543 z "},"S":{"ha":901,"x_min":0,"x_max":0,"o":"m 438 1015 b 67 717 256 1015 67 917 b 283 457 67 590 133 507 b 483 403 347 436 410 422 b 657 269 606 372 657 332 b 463 146 657 179 563 146 b 244 329 360 146 244 189 l 33 329 l 33 322 b 456 -24 33 76 249 -24 b 868 294 719 -24 868 107 b 683 550 868 431 786 508 b 542 592 639 568 588 581 b 278 733 319 649 278 661 b 429 846 278 811 349 846 b 624 696 558 846 617 796 l 835 696 b 438 1015 835 921 650 1015 z "},"T":{"ha":849,"x_min":0,"x_max":0,"o":"m 18 992 l 18 808 l 315 808 l 315 0 l 533 0 l 533 808 l 831 808 l 831 992 z "},"U":{"ha":1029,"x_min":0,"x_max":0,"o":"m 92 992 l 92 371 b 514 -24 92 124 231 -24 b 938 371 794 -24 938 124 l 938 992 l 719 992 l 719 371 b 514 160 719 225 667 160 b 310 371 374 160 310 225 l 310 992 z "},"V":{"ha":875,"x_min":0,"x_max":0,"o":"m -11 992 l 311 0 l 557 0 l 886 992 l 661 992 l 438 294 l 435 294 l 214 992 z "},"W":{"ha":1311,"x_min":0,"x_max":0,"o":"m 4 992 l 267 0 l 488 0 l 653 675 l 656 675 l 824 0 l 1040 0 l 1307 992 l 1093 992 l 931 308 l 928 308 l 758 992 l 554 992 l 382 317 l 379 317 l 222 992 z "},"X":{"ha":926,"x_min":0,"x_max":0,"o":"m 19 992 l 339 519 l -8 0 l 238 0 l 458 343 l 675 0 l 935 0 l 589 518 l 907 992 l 668 992 l 467 675 l 272 992 z "},"Y":{"ha":926,"x_min":0,"x_max":0,"o":"m -12 992 l 353 386 l 353 0 l 571 0 l 571 381 l 939 992 l 696 992 l 465 600 l 233 992 z "},"Z":{"ha":900,"x_min":0,"x_max":0,"o":"m 74 992 l 74 808 l 564 808 l 32 172 l 32 0 l 868 0 l 868 183 l 322 183 l 854 819 l 854 992 z "},"[":{"ha":463,"x_min":0,"x_max":0,"o":"m 94 1015 l 94 -253 l 461 -253 l 461 -97 l 292 -97 l 292 860 l 461 860 l 461 1015 z "},"\\":{"ha":515,"x_min":0,"x_max":0,"o":"m -15 1015 l 372 -24 l 531 -24 l 143 1015 z "},"]":{"ha":463,"x_min":0,"x_max":0,"o":"m 1 1015 l 1 860 l 171 860 l 171 -97 l 1 -97 l 1 -253 l 368 -253 l 368 1015 z "},"^":{"ha":833,"x_min":0,"x_max":0,"o":"m 324 972 l 85 438 l 247 438 l 417 819 l 586 438 l 749 438 l 510 972 z "},"_":{"ha":694,"x_min":0,"x_max":0,"o":"m 0 -104 l 0 -174 l 694 -174 l 694 -104 z "},"‘":{"ha":386,"x_min":0,"x_max":0,"o":"m 292 992 b 94 767 178 976 94 885 l 94 546 l 292 546 l 292 760 l 200 760 l 200 763 b 292 900 200 836 228 879 z "},"a":{"ha":797,"x_min":0,"x_max":0,"o":"m 406 738 b 67 497 204 738 75 654 l 264 497 b 396 606 271 572 314 606 b 522 510 463 606 522 592 b 438 435 522 467 496 447 b 210 399 376 422 283 418 b 44 196 94 368 44 300 b 289 -19 44 57 142 -19 b 531 69 390 -19 475 11 b 544 0 532 46 538 22 l 744 0 b 719 153 726 29 719 96 l 719 533 b 406 738 719 667 615 738 z m 242 204 b 403 317 242 279 301 304 b 522 351 469 325 504 335 l 522 275 b 363 113 522 169 468 113 b 242 204 276 113 242 147 z "},"b":{"ha":849,"x_min":0,"x_max":0,"o":"m 75 992 l 75 0 l 263 0 l 263 92 l 265 92 b 500 -19 304 19 385 -19 b 799 360 656 -19 799 108 b 501 738 799 621 646 738 b 275 631 400 738 318 696 l 272 631 l 272 992 z m 265 358 b 432 589 265 490 324 589 b 601 358 547 589 601 486 b 433 129 601 231 544 129 b 265 358 325 129 265 226 z "},"c":{"ha":797,"x_min":0,"x_max":0,"o":"m 419 738 b 53 349 192 738 53 578 b 415 -19 53 140 192 -19 b 761 275 607 -19 735 86 l 571 275 b 414 129 557 182 501 129 b 250 356 299 129 250 238 b 418 589 250 472 299 589 b 564 465 500 589 551 547 l 757 465 b 419 738 746 638 603 738 z "},"d":{"ha":849,"x_min":0,"x_max":0,"o":"m 578 992 l 578 631 l 575 631 b 363 738 532 700 449 738 b 44 365 156 738 44 564 b 367 -19 44 161 153 -19 b 585 92 465 -19 542 18 l 588 92 l 588 0 l 775 0 l 775 992 z m 242 360 b 414 589 242 499 301 589 b 585 361 535 589 585 492 b 415 129 585 217 528 129 b 242 360 294 129 242 246 z "},"e":{"ha":797,"x_min":0,"x_max":0,"o":"m 407 738 b 40 358 190 738 40 575 b 407 -19 40 138 179 -19 b 743 222 579 -19 689 60 l 569 222 b 413 129 554 172 488 129 b 238 311 304 129 243 188 l 756 311 l 757 349 b 740 475 757 383 753 428 b 407 738 701 622 590 738 z m 238 436 b 400 589 246 531 307 589 b 558 436 492 589 539 544 z "},"f":{"ha":463,"x_min":0,"x_max":0,"o":"m 315 0 l 315 586 l 451 586 l 451 718 l 315 718 l 315 760 b 392 843 315 821 338 843 b 463 839 413 843 438 842 l 463 986 b 358 992 404 990 372 992 b 118 771 221 992 118 921 l 118 718 l 0 718 l 0 586 l 118 586 l 118 0 z "},"g":{"ha":849,"x_min":0,"x_max":0,"o":"m 361 738 b 53 382 157 738 53 565 b 360 21 53 172 153 21 b 575 132 457 21 536 64 l 578 132 l 578 33 b 419 -140 578 -76 521 -140 b 272 -42 343 -140 289 -111 l 76 -42 b 394 -272 85 -190 228 -272 b 765 44 657 -272 765 -142 l 765 718 l 578 718 l 578 622 l 575 622 b 361 738 531 699 464 738 z m 250 385 b 408 589 250 503 307 589 b 578 369 547 589 578 469 b 410 169 578 257 517 169 b 250 385 296 169 250 268 z "},"h":{"ha":824,"x_min":0,"x_max":0,"o":"m 75 992 l 75 0 l 272 0 l 272 376 b 425 582 272 503 304 582 b 551 408 517 582 551 525 l 551 0 l 749 0 l 749 449 b 488 738 749 647 669 738 b 276 618 404 738 321 692 l 272 618 l 272 992 z "},"i":{"ha":358,"x_min":0,"x_max":0,"o":"m 81 992 l 81 829 l 278 829 l 278 992 z m 81 718 l 81 0 l 278 0 l 278 718 z "},"j":{"ha":386,"x_min":0,"x_max":0,"o":"m 93 992 l 93 829 l 290 829 l 290 992 z m 93 718 l 93 -25 b 18 -90 93 -64 78 -90 b -26 -85 1 -90 -15 -89 l -26 -247 b 39 -253 -4 -250 17 -253 b 290 -40 225 -253 290 -192 l 290 718 z "},"k":{"ha":797,"x_min":0,"x_max":0,"o":"m 93 992 l 93 0 l 290 0 l 290 247 l 367 321 l 564 0 l 803 0 l 501 454 l 772 718 l 539 718 l 290 460 l 290 992 z "},"l":{"ha":358,"x_min":0,"x_max":0,"o":"m 81 992 l 81 0 l 278 0 l 278 992 z "},"m":{"ha":1258,"x_min":0,"x_max":0,"o":"m 489 738 b 269 621 400 738 325 700 l 267 621 l 267 718 l 81 718 l 81 0 l 278 0 l 278 418 b 411 582 278 550 365 582 b 531 424 517 582 531 517 l 531 0 l 728 0 l 728 401 b 860 582 728 517 767 582 b 981 415 967 582 981 510 l 981 0 l 1178 0 l 1178 482 b 917 738 1178 640 1094 738 b 699 618 829 738 751 694 b 489 738 665 693 596 738 z "},"n":{"ha":824,"x_min":0,"x_max":0,"o":"m 488 738 b 267 618 394 738 314 694 l 263 618 l 263 718 l 75 718 l 75 0 l 272 0 l 272 374 b 425 582 272 501 303 582 b 551 407 517 582 551 525 l 551 0 l 749 0 l 749 447 b 488 738 749 649 669 738 z "},"o":{"ha":849,"x_min":0,"x_max":0,"o":"m 424 738 b 53 358 199 738 53 588 b 424 -19 53 132 197 -19 b 796 358 644 -19 796 126 b 424 738 796 586 651 738 z m 250 358 b 422 589 250 506 313 589 b 599 358 558 589 599 475 b 424 129 599 217 540 129 b 250 358 311 129 250 213 z "},"p":{"ha":849,"x_min":0,"x_max":0,"o":"m 479 738 b 265 626 386 738 313 701 l 263 626 l 263 718 l 75 718 l 75 -253 l 272 -253 l 272 89 l 275 89 b 490 -19 322 19 401 -19 b 806 351 697 -19 806 154 b 479 738 806 565 697 738 z m 265 357 b 435 589 265 503 326 589 b 608 357 567 589 608 467 b 438 129 608 229 560 129 b 265 357 318 129 265 228 z "},"q":{"ha":849,"x_min":0,"x_max":0,"o":"m 367 738 b 44 353 151 738 44 556 b 349 -19 44 78 217 -19 b 575 90 446 -19 532 18 l 578 90 l 578 -253 l 775 -253 l 775 718 l 588 718 l 588 626 l 585 626 b 367 738 544 699 465 738 z m 242 358 b 415 589 242 488 297 589 b 585 356 543 589 585 464 b 413 129 585 229 535 129 b 242 358 293 129 242 228 z "},"r":{"ha":540,"x_min":0,"x_max":0,"o":"m 494 738 b 265 585 396 738 303 675 l 263 585 l 263 718 l 75 718 l 75 0 l 272 0 l 272 324 b 467 554 272 453 324 554 b 538 547 494 554 518 551 l 538 731 b 494 738 528 733 514 738 z "},"s":{"ha":746,"x_min":0,"x_max":0,"o":"m 369 738 b 57 507 168 738 57 660 b 292 314 57 406 125 349 b 508 204 447 282 508 257 b 379 113 508 142 446 113 b 228 233 297 113 228 153 l 40 233 b 378 -19 46 64 182 -19 b 706 231 546 -19 706 46 b 650 360 706 285 688 326 b 408 447 607 396 554 418 b 254 539 297 469 254 493 b 364 606 254 582 288 606 b 499 508 446 606 493 578 l 686 508 b 369 738 674 657 564 738 z "},"t":{"ha":489,"x_min":0,"x_max":0,"o":"m 128 933 l 128 718 l 8 718 l 8 586 l 128 586 l 128 165 b 353 -8 128 38 204 -8 b 469 -1 392 -8 436 -7 l 469 153 b 408 147 453 149 431 147 b 325 231 342 147 325 164 l 325 586 l 469 586 l 469 718 l 325 718 l 325 933 z "},"u":{"ha":824,"x_min":0,"x_max":0,"o":"m 75 718 l 75 272 b 336 -19 75 75 149 -19 b 557 100 424 -19 507 19 l 561 100 l 561 0 l 749 0 l 749 718 l 551 718 l 551 340 b 399 136 551 199 507 136 b 272 311 301 136 272 201 l 272 718 z "},"v":{"ha":722,"x_min":0,"x_max":0,"o":"m 7 718 l 253 0 l 472 0 l 715 718 l 519 718 l 368 228 l 365 228 l 214 718 z "},"w":{"ha":1131,"x_min":0,"x_max":0,"o":"m 8 718 l 236 0 l 440 0 l 563 482 l 565 482 l 693 0 l 896 0 l 1122 718 l 919 718 l 788 232 l 785 232 l 663 718 l 471 718 l 351 231 l 349 231 l 217 718 z "},"x":{"ha":746,"x_min":0,"x_max":0,"o":"m 22 718 l 258 378 l 0 0 l 221 0 l 371 226 l 521 0 l 746 0 l 481 382 l 717 718 l 499 718 l 374 531 l 247 718 z "},"y":{"ha":721,"x_min":0,"x_max":0,"o":"m -8 718 l 244 44 b 253 0 251 25 253 13 b 165 -90 253 -51 221 -90 b 61 -83 138 -90 103 -87 l 61 -246 b 185 -253 103 -250 138 -253 b 429 -90 318 -253 388 -203 l 729 718 l 525 718 l 368 226 l 365 226 l 203 718 z "},"z":{"ha":721,"x_min":0,"x_max":0,"o":"m 58 718 l 58 569 l 404 569 l 31 149 l 31 0 l 690 0 l 690 149 l 290 149 l 664 569 l 664 718 z "},"{":{"ha":463,"x_min":0,"x_max":0,"o":"m 463 1015 l 292 1015 b 115 829 207 1015 115 940 l 115 564 b -12 442 115 492 57 444 l -12 321 b 115 206 42 319 115 285 l 115 -67 b 290 -253 115 -183 213 -253 l 463 -253 l 463 -97 l 389 -97 b 313 1 339 -97 313 -68 l 313 228 b 175 379 313 319 249 369 l 175 383 b 313 549 261 394 313 449 l 313 761 b 388 860 313 826 336 860 l 463 860 z "},"|":{"ha":310,"x_min":0,"x_max":0,"o":"m 81 1092 l 81 -297 l 229 -297 l 229 1092 z "},"}":{"ha":463,"x_min":0,"x_max":0,"o":"m 0 1015 l 0 860 l 75 860 b 150 761 125 860 150 828 l 150 544 b 288 383 150 461 192 394 l 288 379 b 150 226 218 371 150 324 l 150 3 b 75 -97 150 -62 128 -97 l 0 -97 l 0 -253 l 175 -253 b 347 -67 243 -253 347 -187 l 347 208 b 475 321 347 268 399 317 l 475 442 b 347 565 406 444 347 490 l 347 826 b 175 1015 347 954 240 1015 z "},"~":{"ha":833,"x_min":0,"x_max":0,"o":"m 685 478 b 563 378 640 408 607 378 b 267 472 492 378 371 472 b 93 353 196 472 138 438 l 149 224 b 265 324 181 294 218 324 b 567 229 399 324 451 229 b 740 349 638 229 686 269 z "},"¡":{"ha":386,"x_min":0,"x_max":0,"o":"m 85 738 l 85 524 l 303 524 l 303 738 z m 144 440 l 90 13 l 90 -254 l 296 -254 l 296 13 l 243 440 z "},"¢":{"ha":772,"x_min":0,"x_max":0,"o":"m 361 738 b 29 347 147 719 29 560 b 361 -19 29 149 163 -8 l 361 -160 l 443 -160 l 443 -19 b 757 282 619 -3 742 108 l 564 282 b 443 129 564 213 513 142 l 443 589 b 561 464 507 583 556 529 l 754 464 b 443 738 746 639 588 738 l 443 856 l 361 856 z m 226 367 b 361 588 226 482 275 565 l 361 129 b 226 367 275 157 226 242 z "},"£":{"ha":772,"x_min":0,"x_max":0,"o":"m 410 1015 b 56 739 190 1015 56 897 b 118 547 56 665 83 592 l 29 547 l 29 429 l 167 429 b 193 336 188 385 193 361 b 36 106 193 256 140 172 l 122 -24 b 282 29 156 1 206 29 b 415 3 336 29 372 18 b 569 -24 458 -12 500 -24 b 788 65 654 -24 731 10 l 704 206 b 583 146 665 165 635 146 b 472 163 536 146 497 157 b 364 178 411 176 383 178 b 269 146 326 178 304 167 l 267 149 b 381 344 340 207 381 265 b 369 429 381 383 378 404 l 515 429 l 515 547 l 331 547 b 274 724 285 632 274 664 b 410 853 274 806 331 853 b 561 668 506 853 556 793 l 749 668 b 410 1015 747 896 622 1015 z "},"⁄":{"ha":232,"x_min":0,"x_max":0,"o":"m 344 1003 l -231 -31 l -110 -31 l 463 1003 z "},"¥":{"ha":772,"x_min":0,"x_max":0,"o":"m -12 992 l 201 560 l 69 560 l 69 428 l 268 428 l 288 388 l 288 324 l 69 324 l 69 192 l 288 192 l 288 0 l 499 0 l 499 192 l 718 192 l 718 324 l 499 324 l 499 388 l 519 428 l 718 428 l 718 560 l 586 560 l 801 992 l 576 992 l 397 560 l 214 992 z "},"ƒ":{"ha":772,"x_min":0,"x_max":0,"o":"m 606 1015 b 319 776 432 1015 354 960 l 286 600 l 160 600 l 135 468 l 263 468 l 175 11 b 82 -87 167 -32 158 -87 b 19 -83 51 -87 38 -86 l -7 -232 b 93 -236 18 -235 43 -236 b 386 38 299 -236 351 -153 l 464 468 l 603 468 l 625 600 l 489 600 l 524 781 b 632 867 536 847 563 867 b 685 857 653 867 669 864 l 710 1006 b 606 1015 678 1013 643 1015 z "},"§":{"ha":772,"x_min":0,"x_max":0,"o":"m 393 1015 b 103 775 254 1015 103 933 b 163 635 103 721 119 682 b 14 433 64 600 14 528 b 269 163 14 332 74 250 b 454 64 392 108 424 89 b 493 -10 481 42 493 17 b 390 -104 493 -89 428 -104 b 254 17 307 -104 258 -65 l 82 17 b 394 -253 82 -160 201 -253 b 690 -19 536 -253 690 -174 b 614 144 690 53 664 107 b 758 347 699 175 758 251 b 697 493 758 403 739 449 b 463 632 664 528 613 565 b 290 779 326 693 290 733 b 396 867 290 831 343 867 b 514 747 467 867 514 818 l 686 747 b 393 1015 686 918 557 1015 z m 186 449 b 260 542 186 494 224 542 b 282 535 268 542 275 539 l 524 399 b 586 311 579 368 586 335 b 522 235 586 281 560 235 b 463 254 503 235 488 240 l 233 379 b 186 449 213 390 186 408 z "},"¤":{"ha":772,"x_min":0,"x_max":0,"o":"m 579 768 b 389 831 529 811 451 831 b 186 767 313 831 232 806 l 107 844 l 28 765 l 107 685 b 40 485 61 639 40 563 b 107 288 40 408 63 340 l 28 207 l 106 129 l 183 210 b 388 142 233 164 308 142 b 586 211 471 142 543 169 l 665 131 l 742 207 l 665 285 b 729 488 703 329 729 400 b 667 686 729 560 710 639 l 744 763 l 660 847 z m 213 485 b 388 682 213 597 281 682 b 557 488 506 682 557 581 b 388 290 557 379 496 290 b 213 485 275 290 213 381 z "},"'":{"ha":386,"x_min":0,"x_max":0,"o":"m 119 992 l 119 546 l 268 546 l 268 992 z "},"“":{"ha":643,"x_min":0,"x_max":0,"o":"m 272 992 b 75 768 156 976 75 882 l 75 546 l 272 546 l 272 760 l 181 760 b 272 900 181 838 208 878 z m 568 992 b 371 768 451 976 371 882 l 371 546 l 568 546 l 568 760 l 476 760 b 568 900 476 833 501 878 z "},"«":{"ha":617,"x_min":0,"x_max":0,"o":"m 58 472 l 58 285 l 276 111 l 276 278 l 151 378 l 276 476 l 276 643 z m 340 472 l 340 285 l 558 111 l 558 278 l 433 378 l 558 476 l 558 643 z "},"‹":{"ha":335,"x_min":0,"x_max":0,"o":"m 58 472 l 58 285 l 276 111 l 276 278 l 151 378 l 276 476 l 276 643 z "},"›":{"ha":335,"x_min":0,"x_max":0,"o":"m 58 643 l 58 476 l 183 378 l 58 278 l 58 111 l 276 285 l 276 472 z "},"ﬁ":{"ha":849,"x_min":0,"x_max":0,"o":"m 315 0 l 315 586 l 451 586 l 451 718 l 315 718 l 315 760 b 392 843 315 821 338 843 b 463 839 413 843 438 842 l 463 986 b 358 992 404 990 372 992 b 118 771 221 992 118 921 l 118 718 l 0 718 l 0 586 l 118 586 l 118 0 z m 571 992 l 571 829 l 768 829 l 768 992 z m 571 718 l 571 0 l 768 0 l 768 718 z "},"ﬂ":{"ha":849,"x_min":0,"x_max":0,"o":"m 315 0 l 315 586 l 451 586 l 451 718 l 315 718 l 315 760 b 392 843 315 821 338 843 b 463 839 413 843 438 842 l 463 986 b 358 992 404 990 372 992 b 118 771 221 992 118 921 l 118 718 l 0 718 l 0 586 l 118 586 l 118 0 z m 571 992 l 571 0 l 768 0 l 768 992 z "},"–":{"ha":694,"x_min":0,"x_max":0,"o":"m 0 464 l 0 294 l 694 294 l 694 464 z "},"†":{"ha":772,"x_min":0,"x_max":0,"o":"m 292 992 l 292 718 l 33 718 l 33 556 l 292 556 l 292 -231 l 479 -231 l 479 556 l 739 556 l 739 718 l 479 718 l 479 992 z "},"‡":{"ha":772,"x_min":0,"x_max":0,"o":"m 292 992 l 292 718 l 33 718 l 33 556 l 292 556 l 292 200 l 33 200 l 33 38 l 292 38 l 292 -231 l 479 -231 l 479 38 l 739 38 l 739 200 l 479 200 l 479 556 l 739 556 l 739 718 l 479 718 l 479 992 z "},"·":{"ha":386,"x_min":0,"x_max":0,"o":"m 194 517 b 76 399 132 517 76 465 b 196 282 76 333 132 282 b 311 399 257 282 311 339 b 194 517 311 463 258 517 z "},"¶":{"ha":861,"x_min":0,"x_max":0,"o":"m 743 992 l 333 992 b 3 739 115 992 3 911 b 307 496 3 592 111 497 l 307 -231 l 449 -231 l 449 881 l 601 881 l 601 -231 l 743 -231 z "},"•":{"ha":696,"x_min":0,"x_max":0,"o":"m 347 743 b 100 496 211 743 100 635 b 347 247 100 357 211 247 b 596 496 486 247 596 360 b 347 743 596 636 482 743 z "},"‚":{"ha":386,"x_min":0,"x_max":0,"o":"m 94 214 l 94 0 l 186 0 l 186 -3 b 94 -140 186 -78 157 -119 l 94 -232 b 292 -8 208 -217 292 -124 l 292 214 z "},"„":{"ha":643,"x_min":0,"x_max":0,"o":"m 75 214 l 75 0 l 167 0 b 75 -140 167 -82 135 -119 l 75 -232 b 272 -10 196 -215 272 -117 l 272 214 z m 371 214 l 371 0 l 463 0 b 371 -140 463 -82 431 -121 l 371 -232 b 568 -8 492 -215 568 -118 l 568 214 z "},"”":{"ha":643,"x_min":0,"x_max":0,"o":"m 75 992 l 75 778 l 167 778 b 75 638 167 697 136 658 l 75 546 b 272 768 192 561 272 657 l 272 992 z m 371 992 l 371 778 l 463 778 b 371 638 463 699 433 658 l 371 546 b 568 771 489 563 568 656 l 568 992 z "},"»":{"ha":617,"x_min":0,"x_max":0,"o":"m 58 643 l 58 476 l 183 378 l 58 278 l 58 111 l 276 285 l 276 472 z m 340 476 l 465 378 l 340 278 l 340 111 l 558 285 l 558 472 l 340 643 z "},"…":{"ha":1389,"x_min":0,"x_max":0,"o":"m 122 214 l 122 0 l 340 0 l 340 214 z m 585 214 l 585 0 l 803 0 l 803 214 z m 1047 214 l 1047 0 l 1265 0 l 1265 214 z "},"‰":{"ha":1593,"x_min":0,"x_max":0,"o":"m 783 1003 l 208 -31 l 329 -31 l 901 1003 z m 815 458 b 611 215 682 458 611 360 b 814 -19 611 72 689 -19 b 1017 215 944 -19 1017 68 b 815 458 1017 374 949 458 z m 736 225 b 817 368 736 290 736 368 b 892 215 889 368 892 294 b 814 71 892 140 888 71 b 736 225 751 71 736 139 z m 1296 458 b 1092 215 1161 458 1092 358 b 1294 -19 1092 72 1168 -19 b 1497 215 1426 -19 1497 68 b 1296 458 1497 374 1429 458 z m 1217 228 b 1297 368 1217 300 1221 368 b 1372 215 1372 368 1372 288 b 1294 71 1372 146 1371 71 b 1217 228 1235 71 1217 132 z m 300 992 b 96 749 157 992 96 881 b 299 514 96 607 172 514 b 501 749 444 514 501 619 b 300 992 501 906 435 992 z m 221 761 b 301 901 221 825 222 901 b 376 750 376 901 376 822 b 299 604 376 683 376 604 b 221 761 247 604 221 647 z "},"¿":{"ha":772,"x_min":0,"x_max":0,"o":"m 286 738 l 286 524 l 504 524 l 504 738 z m 297 446 l 297 406 b 165 233 297 322 222 275 b 44 -3 78 171 44 101 b 389 -272 44 -115 135 -272 b 725 71 583 -272 719 -137 l 521 71 b 381 -110 521 -32 474 -110 b 263 17 315 -110 263 -78 b 354 157 263 74 285 104 b 485 400 443 224 485 293 l 485 446 z "},"`":{"ha":360,"x_min":0,"x_max":0,"o":"m -67 1004 l 147 807 l 285 807 l 151 1004 z "},"´":{"ha":360,"x_min":0,"x_max":0,"o":"m 208 1004 l 75 807 l 213 807 l 426 1004 z "},"ˆ":{"ha":360,"x_min":0,"x_max":0,"o":"m 90 1004 l -64 807 l 86 807 l 175 919 l 261 807 l 424 807 l 271 1004 z "},"˜":{"ha":360,"x_min":0,"x_max":0,"o":"m 99 992 b -75 822 -17 992 -57 908 l 10 822 b 72 881 21 863 32 881 b 276 833 122 881 206 833 b 435 992 363 835 403 876 l 339 992 b 283 943 339 957 313 943 b 99 992 214 943 164 992 z "},"¯":{"ha":360,"x_min":0,"x_max":0,"o":"m -79 960 l -79 856 l 439 856 l 439 960 z "},"˘":{"ha":360,"x_min":0,"x_max":0,"o":"m -54 1010 b 168 807 -43 882 25 807 b 414 1010 315 807 399 881 l 326 1010 b 175 911 313 946 261 911 b 36 1010 93 911 44 951 z "},"˙":{"ha":360,"x_min":0,"x_max":0,"o":"m 86 992 l 86 829 l 274 829 l 274 992 z "},"¨":{"ha":360,"x_min":0,"x_max":0,"o":"m -57 992 l -57 829 l 131 829 l 131 992 z m 229 992 l 229 829 l 417 829 l 417 992 z "},"˚":{"ha":360,"x_min":0,"x_max":0,"o":"m 181 1081 b 10 908 83 1081 10 1003 b 179 742 10 828 78 742 b 350 908 275 742 350 821 b 181 1081 350 1006 274 1081 z m 92 908 b 179 1008 92 967 126 1008 b 268 908 239 1008 268 958 b 179 814 268 853 226 814 b 92 908 128 814 92 857 z "},"¸":{"ha":360,"x_min":0,"x_max":0,"o":"m 78 -115 l 107 -149 b 164 -139 128 -142 147 -139 b 218 -182 197 -139 218 -153 b 156 -231 218 -221 192 -231 b 46 -206 121 -231 78 -219 l 17 -272 b 188 -303 54 -285 92 -303 b 351 -167 319 -303 351 -229 b 224 -67 351 -100 294 -67 b 176 -74 208 -67 193 -67 l 174 -74 l 228 3 l 160 3 z "},"˝":{"ha":360,"x_min":0,"x_max":0,"o":"m 49 1004 l -78 807 l 60 807 l 267 1004 z m 336 1004 l 210 807 l 347 807 l 554 1004 z "},"˛":{"ha":360,"x_min":0,"x_max":0,"o":"m 171 4 b 13 -175 97 -39 13 -104 b 165 -303 13 -264 74 -303 b 347 -208 229 -303 296 -274 l 281 -178 b 200 -219 257 -211 231 -219 b 146 -169 182 -219 146 -208 b 261 4 146 -111 196 -57 z "},"ˇ":{"ha":360,"x_min":0,"x_max":0,"o":"m -64 1004 l 90 807 l 271 807 l 424 1004 l 271 1004 l 181 892 l 92 1004 z "},"—":{"ha":1389,"x_min":0,"x_max":0,"o":"m 181 464 l 181 294 l 1208 294 l 1208 464 z "},"Æ":{"ha":1363,"x_min":0,"x_max":0,"o":"m 458 992 l -15 0 l 217 0 l 317 221 l 628 221 l 628 0 l 1311 0 l 1311 183 l 839 183 l 839 426 l 1272 426 l 1272 596 l 839 596 l 839 808 l 1300 808 l 1300 992 z m 628 808 l 628 383 l 389 383 l 581 808 z "},"ª":{"ha":478,"x_min":0,"x_max":0,"o":"m 244 992 b 28 840 121 992 44 949 l 169 840 b 239 901 172 876 199 901 b 321 847 288 901 321 893 b 235 801 321 813 283 807 b 14 660 136 790 14 786 b 169 521 14 569 72 521 b 319 576 232 521 286 540 b 329 533 321 561 325 547 l 469 533 b 453 633 457 557 453 600 l 453 867 b 244 992 453 950 386 992 z m 156 663 b 253 722 156 697 188 713 b 319 743 294 728 310 735 l 319 711 b 219 611 319 643 285 611 b 156 663 179 611 156 631 z "},"Ł":{"ha":824,"x_min":0,"x_max":0,"o":"m 96 992 l 96 453 l -15 375 l -15 219 l 96 297 l 96 0 l 797 0 l 797 183 l 314 183 l 314 450 l 607 656 l 607 811 l 314 606 l 314 992 z "},"Ø":{"ha":1081,"x_min":0,"x_max":0,"o":"m 964 1032 l 853 908 b 540 1015 771 979 663 1015 b 53 492 233 1015 53 785 b 167 146 53 358 90 239 l 47 14 l 115 -46 l 231 82 b 540 -24 317 10 425 -24 b 1028 492 839 -24 1028 199 b 917 842 1028 622 992 747 l 1033 971 z m 271 492 b 539 832 271 683 357 832 b 721 761 611 832 672 810 l 310 304 b 271 492 286 353 271 417 z m 772 681 b 810 492 797 625 810 565 b 540 160 810 324 735 160 b 363 228 463 160 406 185 z "},"Œ":{"ha":1518,"x_min":0,"x_max":0,"o":"m 518 1015 b 53 490 218 1015 53 758 b 514 -24 53 207 228 -24 b 753 75 604 -24 694 11 l 756 75 l 756 0 l 1460 0 l 1460 183 l 958 183 l 958 426 l 1408 426 l 1408 596 l 958 596 l 958 808 l 1450 808 l 1450 992 l 756 992 l 756 921 l 753 921 b 518 1015 704 983 618 1015 z m 271 493 b 532 832 271 671 349 832 b 747 624 663 832 747 742 l 747 385 b 529 160 747 256 667 160 b 271 493 347 160 271 325 z "},"º":{"ha":510,"x_min":0,"x_max":0,"o":"m 254 992 b 17 756 110 992 17 901 b 254 521 17 610 110 521 b 493 756 400 521 493 611 b 254 992 493 901 399 992 z m 165 756 b 254 888 165 818 192 888 b 344 756 318 888 344 818 b 254 625 344 697 319 625 b 165 756 193 625 165 692 z "},"æ":{"ha":1260,"x_min":0,"x_max":0,"o":"m 410 738 b 72 494 221 738 78 661 l 269 494 b 407 606 274 568 318 606 b 535 514 492 606 535 575 b 336 421 535 456 492 440 b 83 311 179 400 124 371 b 53 194 63 281 53 243 b 321 -19 53 50 164 -19 b 614 103 440 -19 553 22 b 882 -19 671 21 769 -19 b 1213 225 1033 -19 1169 67 l 1021 225 b 878 113 1007 149 960 113 b 707 303 776 113 707 204 l 707 311 l 1219 311 b 889 738 1218 579 1096 738 b 649 640 774 738 707 707 b 410 738 606 703 515 738 z m 707 436 b 867 606 708 539 781 606 b 1022 436 969 606 1022 524 z m 250 206 b 393 311 250 257 276 296 b 535 350 496 325 514 335 l 535 260 b 372 113 535 160 449 113 b 250 206 293 113 250 146 z "},"ı":{"ha":358,"x_min":0,"x_max":0,"o":"m 81 718 l 81 0 l 278 0 l 278 718 z "},"ł":{"ha":358,"x_min":0,"x_max":0,"o":"m 81 992 l 81 539 l -12 465 l -12 324 l 81 397 l 81 0 l 278 0 l 278 553 l 371 626 l 371 768 l 278 694 l 278 992 z "},"ø":{"ha":849,"x_min":0,"x_max":0,"o":"m 650 671 b 424 738 588 715 511 738 b 53 358 199 738 53 588 b 144 96 53 250 83 163 l 61 1 l 113 -43 l 194 50 b 424 -19 257 4 333 -19 b 796 358 649 -19 796 129 b 700 626 796 467 763 560 l 775 711 l 724 756 z m 250 358 b 422 589 250 504 311 589 b 539 544 474 589 511 574 l 271 239 b 250 358 257 271 250 310 z m 576 485 b 599 358 593 443 599 400 b 424 129 599 217 540 129 b 306 176 374 129 335 144 z "},"œ":{"ha":1286,"x_min":0,"x_max":0,"o":"m 406 738 b 53 363 188 738 53 571 b 390 -19 53 157 169 -19 b 644 103 497 -19 597 22 b 904 -19 696 21 792 -19 b 1240 228 1068 -19 1194 72 l 1049 228 b 904 129 1022 163 976 129 b 733 311 799 129 733 196 l 1246 311 b 894 738 1244 582 1115 738 b 653 624 803 738 699 693 b 406 738 606 696 519 738 z m 250 356 b 406 589 250 493 303 589 b 561 361 508 589 561 511 b 403 129 561 208 506 129 b 250 356 292 129 250 244 z m 733 436 b 889 589 739 535 801 589 b 1049 436 992 589 1044 532 z "},"ß":{"ha":849,"x_min":0,"x_max":0,"o":"m 404 1015 b 78 686 182 1015 78 900 l 78 0 l 275 0 l 275 717 b 400 853 275 793 314 853 b 532 729 488 853 532 810 b 386 606 532 644 461 606 b 356 608 376 606 367 607 l 356 478 b 404 481 369 479 388 481 b 574 313 513 481 574 419 b 411 143 574 215 506 143 b 356 150 392 143 374 144 l 356 -11 b 468 -19 396 -17 432 -19 b 771 304 646 -19 771 132 b 590 553 771 431 704 529 l 590 556 b 719 750 667 579 719 658 b 404 1015 719 922 583 1015 z "},"¹":{"ha":544,"x_min":0,"x_max":0,"o":"m 401 979 l 285 979 b 118 864 272 894 203 864 l 107 864 l 107 760 l 260 760 l 260 379 l 401 379 z "},"¬":{"ha":833,"x_min":0,"x_max":0,"o":"m 67 564 l 67 415 l 618 415 l 618 138 l 767 138 l 767 564 z "},"µ":{"ha":824,"x_min":0,"x_max":0,"o":"m 75 718 l 75 -253 l 272 -253 l 272 14 b 376 -19 303 -15 342 -19 b 557 100 415 -19 504 15 l 561 100 l 561 0 l 749 0 l 749 718 l 551 718 l 551 340 b 399 136 551 199 507 136 b 272 313 306 136 272 194 l 272 718 z "},"™":{"ha":1389,"x_min":0,"x_max":0,"o":"m 86 992 l 86 881 l 249 881 l 249 419 l 390 419 l 390 881 l 553 881 l 553 992 z m 626 992 l 626 419 l 760 419 l 760 825 l 763 825 l 910 419 l 1006 419 l 1153 825 l 1156 825 l 1156 419 l 1289 419 l 1289 992 l 1101 992 l 958 615 l 815 992 z "},"Ð":{"ha":1029,"x_min":0,"x_max":0,"o":"m 96 992 l 96 593 l 4 593 l 4 432 l 96 432 l 96 0 l 526 0 b 974 501 808 0 974 194 b 521 992 974 806 804 992 z m 314 593 l 314 808 l 468 808 b 756 482 646 808 756 725 b 508 183 756 265 639 183 l 314 183 l 314 431 l 536 431 l 536 593 z "},"½":{"ha":1235,"x_min":0,"x_max":0,"o":"m 328 979 l 211 979 b 44 864 199 894 129 864 l 33 864 l 33 760 l 186 760 l 186 379 l 328 379 z m 786 1003 l 211 -31 l 332 -31 l 904 1003 z m 849 371 l 849 381 b 949 501 849 440 879 501 b 1033 415 1000 501 1033 464 b 900 272 1032 343 956 308 b 706 0 792 204 707 147 l 1169 0 l 1169 111 l 879 111 b 1063 247 926 175 1000 207 b 1175 425 1125 289 1175 338 b 958 613 1175 549 1074 613 b 707 371 788 613 707 517 z "},"±":{"ha":833,"x_min":0,"x_max":0,"o":"m 343 703 l 343 521 l 67 521 l 67 372 l 343 372 l 343 190 l 492 190 l 492 372 l 768 372 l 768 521 l 492 521 l 492 703 z m 67 149 l 67 0 l 768 0 l 768 149 z "},"Þ":{"ha":926,"x_min":0,"x_max":0,"o":"m 96 992 l 96 0 l 314 0 l 314 221 l 543 221 b 886 539 781 221 886 367 b 546 857 886 722 769 857 l 314 857 l 314 992 z m 314 390 l 314 688 l 485 688 b 675 539 615 688 675 643 b 488 390 675 435 614 390 z "},"¼":{"ha":1239,"x_min":0,"x_max":0,"o":"m 951 583 l 690 253 l 690 124 l 957 124 l 957 0 l 1090 0 l 1090 124 l 1169 124 l 1169 235 l 1090 235 l 1090 583 z m 954 435 l 957 435 l 957 235 l 796 235 z m 328 979 l 211 979 b 44 864 199 894 129 864 l 33 864 l 33 760 l 186 760 l 186 379 l 328 379 z m 786 1003 l 211 -31 l 332 -31 l 904 1003 z "},"÷":{"ha":833,"x_min":0,"x_max":0,"o":"m 418 757 b 300 639 356 757 300 706 b 419 522 300 575 354 522 b 535 639 481 522 535 579 b 418 757 535 706 479 757 z m 67 425 l 67 276 l 768 276 l 768 425 z m 418 179 b 300 63 354 179 300 126 b 419 -56 300 0 354 -56 b 535 63 478 -56 535 1 b 418 179 535 126 482 179 z "},"¦":{"ha":310,"x_min":0,"x_max":0,"o":"m 81 918 l 81 571 l 229 571 l 229 918 z m 81 224 l 81 -124 l 229 -124 l 229 224 z "},"°":{"ha":556,"x_min":0,"x_max":0,"o":"m 278 992 b 72 786 164 992 72 900 b 278 581 72 672 164 581 b 483 786 389 581 483 669 b 278 992 483 900 392 992 z m 163 786 b 278 908 163 854 219 908 b 393 786 339 908 393 851 b 278 664 393 721 339 664 b 163 786 218 664 163 719 z "},"þ":{"ha":849,"x_min":0,"x_max":0,"o":"m 75 992 l 75 -253 l 272 -253 l 272 89 l 275 89 b 490 -19 322 21 399 -19 b 806 351 700 -19 806 158 b 481 738 806 565 696 738 b 275 626 393 738 319 699 l 272 626 l 272 992 z m 265 357 b 435 589 265 483 314 589 b 608 357 575 589 608 453 b 438 129 608 224 556 129 b 265 357 311 129 265 238 z "},"¾":{"ha":1235,"x_min":0,"x_max":0,"o":"m 979 583 l 718 253 l 718 124 l 985 124 l 985 0 l 1118 0 l 1118 124 l 1197 124 l 1197 235 l 1118 235 l 1118 583 z m 982 435 l 985 435 l 985 235 l 824 235 z m 251 644 b 396 565 311 644 396 644 b 294 478 396 514 350 478 b 188 589 225 478 190 529 l 54 589 b 297 367 54 440 147 367 b 538 568 426 367 538 435 b 425 699 538 632 494 686 l 425 701 b 517 821 486 717 517 765 b 296 992 517 935 406 992 b 71 781 158 992 75 910 l 204 781 b 297 881 204 839 238 881 b 383 807 342 881 383 853 b 251 742 383 742 304 742 z m 907 1003 l 332 -31 l 453 -31 l 1025 1003 z "},"²":{"ha":544,"x_min":0,"x_max":0,"o":"m 181 750 l 181 760 b 281 881 181 819 211 881 b 365 794 332 881 365 843 b 232 651 364 722 288 688 b 38 379 124 583 39 526 l 501 379 l 501 490 l 211 490 b 394 626 258 554 332 586 b 507 804 457 668 507 717 b 290 992 507 928 406 992 b 39 750 119 992 39 896 z "},"®":{"ha":1111,"x_min":0,"x_max":0,"o":"m 556 1015 b 22 497 275 1015 22 813 b 556 -24 22 182 272 -24 b 1089 497 840 -24 1089 182 b 556 1015 1089 811 839 1015 z m 164 497 b 554 904 164 735 339 904 b 947 497 781 904 947 725 b 556 88 947 258 771 88 b 164 497 332 88 164 265 z m 349 789 l 349 207 l 464 207 l 464 456 l 536 456 l 678 207 l 799 207 l 643 461 b 796 617 744 469 796 525 b 571 789 796 736 722 789 z m 464 546 l 464 699 l 563 699 b 681 626 642 699 681 672 b 574 546 681 571 654 546 z "},"−":{"ha":833,"x_min":0,"x_max":0,"o":"m 67 425 l 67 276 l 768 276 l 768 425 z "},"ð":{"ha":849,"x_min":0,"x_max":0,"o":"m 217 968 b 333 899 239 960 301 922 l 185 824 l 265 746 l 421 824 b 563 647 463 786 525 732 l 560 647 b 375 703 511 681 447 703 b 53 347 136 703 53 494 b 424 -19 53 138 190 -19 b 796 389 624 -19 796 119 b 567 897 796 640 675 792 l 725 976 l 653 1058 l 482 972 b 344 1064 449 997 417 1024 z m 250 357 b 421 571 250 479 307 571 b 599 357 554 571 599 457 b 424 129 599 229 549 129 b 250 357 288 129 250 249 z "},"×":{"ha":833,"x_min":0,"x_max":0,"o":"m 92 574 l 313 351 l 89 129 l 194 24 l 418 247 l 640 24 l 746 129 l 522 351 l 746 574 l 640 679 l 418 457 l 197 679 z "},"³":{"ha":544,"x_min":0,"x_max":0,"o":"m 228 644 b 372 565 288 644 372 644 b 271 478 372 514 326 478 b 164 589 201 478 167 529 l 31 589 b 274 367 31 440 124 367 b 514 568 403 367 514 435 b 401 699 514 632 471 686 l 401 701 b 493 821 463 717 493 765 b 272 992 493 935 382 992 b 47 781 135 992 51 910 l 181 781 b 274 881 181 839 214 881 b 360 807 318 881 360 853 b 228 742 360 742 281 742 z "},"©":{"ha":1111,"x_min":0,"x_max":0,"o":"m 556 1015 b 22 496 274 1015 22 813 b 556 -24 22 179 274 -24 b 1089 496 839 -24 1089 182 b 556 1015 1089 814 838 1015 z m 164 496 b 554 904 164 733 338 904 b 947 496 771 904 947 735 b 556 88 947 256 768 88 b 164 496 333 88 164 263 z m 572 810 b 276 499 393 810 276 682 b 575 190 276 324 396 190 b 828 410 700 190 806 272 l 715 410 b 575 301 704 339 649 301 b 410 501 475 301 410 393 b 572 699 410 618 468 699 b 715 594 643 699 700 661 l 824 594 b 572 810 807 728 707 810 z "},"Á":{"ha":951,"x_min":0,"x_max":0,"o":"m 367 992 l -10 0 l 211 0 l 289 221 l 660 221 l 735 0 l 961 0 l 590 992 z m 478 747 l 603 383 l 346 383 l 475 747 z m 504 1278 l 371 1081 l 508 1081 l 722 1278 z "},"Â":{"ha":951,"x_min":0,"x_max":0,"o":"m 367 992 l -10 0 l 211 0 l 289 221 l 660 221 l 735 0 l 961 0 l 590 992 z m 478 747 l 603 383 l 346 383 l 475 747 z m 386 1278 l 232 1081 l 385 1081 l 474 1193 l 560 1081 l 719 1081 l 567 1278 z "},"Ä":{"ha":951,"x_min":0,"x_max":0,"o":"m 367 992 l -10 0 l 211 0 l 289 221 l 660 221 l 735 0 l 961 0 l 590 992 z m 478 747 l 603 383 l 346 383 l 475 747 z m 239 1265 l 239 1103 l 426 1103 l 426 1265 z m 525 1265 l 525 1103 l 713 1103 l 713 1265 z "},"À":{"ha":951,"x_min":0,"x_max":0,"o":"m 367 992 l -10 0 l 211 0 l 289 221 l 660 221 l 735 0 l 961 0 l 590 992 z m 478 747 l 603 383 l 346 383 l 475 747 z m 229 1278 l 443 1081 l 581 1081 l 447 1278 z "},"Å":{"ha":951,"x_min":0,"x_max":0,"o":"m 367 992 l -10 0 l 211 0 l 289 221 l 660 221 l 735 0 l 961 0 l 590 992 z m 478 747 l 603 383 l 346 383 l 475 747 z m 478 1332 b 315 1174 388 1332 315 1263 b 478 1015 315 1082 388 1015 b 640 1174 569 1015 640 1086 b 478 1332 640 1261 572 1332 z m 393 1174 b 476 1261 393 1229 431 1261 b 563 1174 536 1261 563 1217 b 478 1086 563 1122 529 1086 b 393 1174 428 1086 393 1122 z "},"Ã":{"ha":951,"x_min":0,"x_max":0,"o":"m 367 992 l -10 0 l 211 0 l 289 221 l 660 221 l 735 0 l 961 0 l 590 992 z m 478 747 l 603 383 l 346 383 l 475 747 z m 385 1265 b 222 1096 294 1265 233 1186 l 310 1096 b 372 1154 321 1138 343 1154 b 469 1129 401 1154 428 1144 b 576 1107 508 1115 540 1107 b 732 1265 657 1107 710 1153 l 643 1265 b 583 1217 633 1229 615 1217 b 496 1239 563 1217 540 1222 b 385 1265 454 1254 422 1265 z "},"Ç":{"ha":1029,"x_min":0,"x_max":0,"o":"m 540 1015 b 53 492 232 1015 53 783 b 479 -19 53 219 214 8 l 413 -115 l 442 -149 b 499 -139 460 -142 479 -139 b 553 -185 533 -139 553 -153 b 496 -231 553 -212 535 -231 b 381 -206 454 -231 413 -219 l 351 -272 b 524 -303 411 -294 453 -303 b 686 -164 629 -303 686 -254 b 563 -67 686 -99 624 -67 b 511 -74 549 -67 526 -67 l 508 -74 l 544 -24 b 976 382 781 -22 954 133 l 765 382 b 540 160 747 240 665 160 b 271 492 356 160 271 310 b 540 832 271 679 354 832 b 757 658 642 832 743 763 l 968 658 b 540 1015 943 882 763 1015 z "},"É":{"ha":900,"x_min":0,"x_max":0,"o":"m 96 992 l 96 0 l 849 0 l 849 183 l 314 183 l 314 426 l 794 426 l 794 596 l 314 596 l 314 808 l 838 808 l 838 992 z m 479 1278 l 346 1081 l 483 1081 l 697 1278 z "},"Ê":{"ha":900,"x_min":0,"x_max":0,"o":"m 96 992 l 96 0 l 849 0 l 849 183 l 314 183 l 314 426 l 794 426 l 794 596 l 314 596 l 314 808 l 838 808 l 838 992 z m 361 1278 l 207 1081 l 360 1081 l 449 1193 l 535 1081 l 694 1081 l 542 1278 z "},"Ë":{"ha":900,"x_min":0,"x_max":0,"o":"m 96 992 l 96 0 l 849 0 l 849 183 l 314 183 l 314 426 l 794 426 l 794 596 l 314 596 l 314 808 l 838 808 l 838 992 z m 214 1265 l 214 1103 l 401 1103 l 401 1265 z m 500 1265 l 500 1103 l 688 1103 l 688 1265 z "},"È":{"ha":900,"x_min":0,"x_max":0,"o":"m 96 992 l 96 0 l 849 0 l 849 183 l 314 183 l 314 426 l 794 426 l 794 596 l 314 596 l 314 808 l 838 808 l 838 992 z m 204 1278 l 418 1081 l 556 1081 l 422 1278 z "},"Í":{"ha":410,"x_min":0,"x_max":0,"o":"m 96 992 l 96 0 l 314 0 l 314 992 z m 233 1278 l 100 1081 l 238 1081 l 451 1278 z "},"Î":{"ha":410,"x_min":0,"x_max":0,"o":"m 96 992 l 96 0 l 314 0 l 314 992 z m 115 1278 l -39 1081 l 114 1081 l 203 1193 l 289 1081 l 449 1081 l 296 1278 z "},"Ï":{"ha":410,"x_min":0,"x_max":0,"o":"m 96 992 l 96 0 l 314 0 l 314 992 z m -32 1265 l -32 1103 l 156 1103 l 156 1265 z m 254 1265 l 254 1103 l 442 1103 l 442 1265 z "},"Ì":{"ha":410,"x_min":0,"x_max":0,"o":"m 96 992 l 96 0 l 314 0 l 314 992 z m -42 1278 l 172 1081 l 310 1081 l 176 1278 z "},"Ñ":{"ha":1029,"x_min":0,"x_max":0,"o":"m 96 992 l 96 0 l 300 0 l 300 664 l 303 664 l 715 0 l 933 0 l 933 992 l 729 992 l 729 326 l 726 326 l 313 992 z m 415 1265 b 253 1096 325 1265 264 1186 l 340 1096 b 403 1154 351 1138 374 1154 b 500 1129 432 1154 458 1144 b 607 1107 539 1115 571 1107 b 763 1265 688 1107 740 1153 l 674 1265 b 614 1217 664 1229 646 1217 b 526 1239 593 1217 571 1222 b 415 1265 485 1254 453 1265 z "},"Ó":{"ha":1081,"x_min":0,"x_max":0,"o":"m 540 1015 b 53 492 233 1015 53 786 b 540 -24 53 203 238 -24 b 1028 492 844 -24 1028 203 b 540 1015 1028 792 842 1015 z m 271 492 b 539 832 271 683 357 832 b 810 492 725 832 810 682 b 540 160 810 311 725 160 b 271 492 358 160 271 307 z m 569 1278 l 436 1081 l 574 1081 l 788 1278 z "},"Ô":{"ha":1081,"x_min":0,"x_max":0,"o":"m 540 1015 b 53 492 233 1015 53 786 b 540 -24 53 203 238 -24 b 1028 492 844 -24 1028 203 b 540 1015 1028 792 842 1015 z m 271 492 b 539 832 271 683 357 832 b 810 492 725 832 810 682 b 540 160 810 311 725 160 b 271 492 358 160 271 307 z m 451 1278 l 297 1081 l 450 1081 l 539 1193 l 625 1081 l 785 1081 l 632 1278 z "},"Ö":{"ha":1081,"x_min":0,"x_max":0,"o":"m 540 1015 b 53 492 233 1015 53 786 b 540 -24 53 203 238 -24 b 1028 492 844 -24 1028 203 b 540 1015 1028 792 842 1015 z m 271 492 b 539 832 271 683 357 832 b 810 492 725 832 810 682 b 540 160 810 311 725 160 b 271 492 358 160 271 307 z m 304 1265 l 304 1103 l 492 1103 l 492 1265 z m 590 1265 l 590 1103 l 778 1103 l 778 1265 z "},"Ò":{"ha":1081,"x_min":0,"x_max":0,"o":"m 540 1015 b 53 492 233 1015 53 786 b 540 -24 53 203 238 -24 b 1028 492 844 -24 1028 203 b 540 1015 1028 792 842 1015 z m 271 492 b 539 832 271 683 357 832 b 810 492 725 832 810 682 b 540 160 810 311 725 160 b 271 492 358 160 271 307 z m 294 1278 l 508 1081 l 646 1081 l 513 1278 z "},"Õ":{"ha":1081,"x_min":0,"x_max":0,"o":"m 540 1015 b 53 492 233 1015 53 786 b 540 -24 53 203 238 -24 b 1028 492 844 -24 1028 203 b 540 1015 1028 792 842 1015 z m 271 492 b 539 832 271 683 357 832 b 810 492 725 832 810 682 b 540 160 810 311 725 160 b 271 492 358 160 271 307 z m 449 1265 b 286 1096 358 1265 297 1186 l 374 1096 b 436 1154 385 1138 407 1154 b 533 1129 465 1154 492 1144 b 640 1107 572 1115 604 1107 b 796 1265 721 1107 774 1153 l 707 1265 b 647 1217 697 1229 679 1217 b 560 1239 626 1217 604 1222 b 449 1265 518 1254 486 1265 z "},"Š":{"ha":901,"x_min":0,"x_max":0,"o":"m 438 1015 b 67 717 256 1015 67 917 b 283 457 67 590 133 507 b 483 403 347 436 410 422 b 657 269 606 372 657 332 b 463 146 657 179 563 146 b 244 329 360 146 244 189 l 33 329 l 33 322 b 456 -24 33 76 249 -24 b 868 294 719 -24 868 107 b 683 550 868 431 786 508 b 542 592 639 568 588 581 b 278 733 319 649 278 661 b 429 846 278 811 349 846 b 624 696 558 846 617 796 l 835 696 b 438 1015 835 921 650 1015 z m 208 1278 l 361 1081 l 542 1081 l 696 1278 l 543 1278 l 454 1165 l 368 1278 z "},"Ú":{"ha":1029,"x_min":0,"x_max":0,"o":"m 92 992 l 92 371 b 514 -24 92 124 231 -24 b 938 371 794 -24 938 124 l 938 992 l 719 992 l 719 371 b 514 160 719 225 667 160 b 310 371 374 160 310 225 l 310 992 z m 543 1278 l 410 1081 l 547 1081 l 761 1278 z "},"Û":{"ha":1029,"x_min":0,"x_max":0,"o":"m 92 992 l 92 371 b 514 -24 92 124 231 -24 b 938 371 794 -24 938 124 l 938 992 l 719 992 l 719 371 b 514 160 719 225 667 160 b 310 371 374 160 310 225 l 310 992 z m 425 1278 l 271 1081 l 424 1081 l 513 1193 l 599 1081 l 758 1081 l 606 1278 z "},"Ü":{"ha":1029,"x_min":0,"x_max":0,"o":"m 92 992 l 92 371 b 514 -24 92 124 231 -24 b 938 371 794 -24 938 124 l 938 992 l 719 992 l 719 371 b 514 160 719 225 667 160 b 310 371 374 160 310 225 l 310 992 z m 278 1265 l 278 1103 l 465 1103 l 465 1265 z m 564 1265 l 564 1103 l 751 1103 l 751 1265 z "},"Ù":{"ha":1029,"x_min":0,"x_max":0,"o":"m 92 992 l 92 371 b 514 -24 92 124 231 -24 b 938 371 794 -24 938 124 l 938 992 l 719 992 l 719 371 b 514 160 719 225 667 160 b 310 371 374 160 310 225 l 310 992 z m 268 1278 l 482 1081 l 619 1081 l 486 1278 z "},"Ý":{"ha":926,"x_min":0,"x_max":0,"o":"m -12 992 l 353 386 l 353 0 l 571 0 l 571 381 l 939 992 l 696 992 l 465 600 l 233 992 z m 492 1278 l 358 1081 l 496 1081 l 710 1278 z "},"Ÿ":{"ha":926,"x_min":0,"x_max":0,"o":"m -12 992 l 353 386 l 353 0 l 571 0 l 571 381 l 939 992 l 696 992 l 465 600 l 233 992 z m 226 1265 l 226 1103 l 414 1103 l 414 1265 z m 513 1265 l 513 1103 l 700 1103 l 700 1265 z "},"Ž":{"ha":900,"x_min":0,"x_max":0,"o":"m 74 992 l 74 808 l 564 808 l 32 172 l 32 0 l 868 0 l 868 183 l 322 183 l 854 819 l 854 992 z m 207 1278 l 360 1081 l 540 1081 l 694 1278 l 542 1278 l 453 1165 l 367 1278 z "},"á":{"ha":797,"x_min":0,"x_max":0,"o":"m 406 738 b 67 497 204 738 75 654 l 264 497 b 396 606 271 572 314 606 b 522 510 463 606 522 592 b 438 435 522 467 496 447 b 210 399 376 422 283 418 b 44 196 94 368 44 300 b 289 -19 44 57 142 -19 b 531 69 390 -19 475 11 b 544 0 532 46 538 22 l 744 0 b 719 153 726 29 719 96 l 719 533 b 406 738 719 667 615 738 z m 242 204 b 403 317 242 279 301 304 b 522 351 469 325 504 335 l 522 275 b 363 113 522 169 468 113 b 242 204 276 113 242 147 z m 428 1004 l 294 807 l 432 807 l 646 1004 z "},"â":{"ha":797,"x_min":0,"x_max":0,"o":"m 406 738 b 67 497 204 738 75 654 l 264 497 b 396 606 271 572 314 606 b 522 510 463 606 522 592 b 438 435 522 467 496 447 b 210 399 376 422 283 418 b 44 196 94 368 44 300 b 289 -19 44 57 142 -19 b 531 69 390 -19 475 11 b 544 0 532 46 538 22 l 744 0 b 719 153 726 29 719 96 l 719 533 b 406 738 719 667 615 738 z m 242 204 b 403 317 242 279 301 304 b 522 351 469 325 504 335 l 522 275 b 363 113 522 169 468 113 b 242 204 276 113 242 147 z m 310 1004 l 156 807 l 306 807 l 394 919 l 481 807 l 643 807 l 490 1004 z "},"ä":{"ha":797,"x_min":0,"x_max":0,"o":"m 406 738 b 67 497 204 738 75 654 l 264 497 b 396 606 271 572 314 606 b 522 510 463 606 522 592 b 438 435 522 467 496 447 b 210 399 376 422 283 418 b 44 196 94 368 44 300 b 289 -19 44 57 142 -19 b 531 69 390 -19 475 11 b 544 0 532 46 538 22 l 744 0 b 719 153 726 29 719 96 l 719 533 b 406 738 719 667 615 738 z m 242 204 b 403 317 242 279 301 304 b 522 351 469 325 504 335 l 522 275 b 363 113 522 169 468 113 b 242 204 276 113 242 147 z m 163 992 l 163 829 l 350 829 l 350 992 z m 449 992 l 449 829 l 636 829 l 636 992 z "},"à":{"ha":797,"x_min":0,"x_max":0,"o":"m 406 738 b 67 497 204 738 75 654 l 264 497 b 396 606 271 572 314 606 b 522 510 463 606 522 592 b 438 435 522 467 496 447 b 210 399 376 422 283 418 b 44 196 94 368 44 300 b 289 -19 44 57 142 -19 b 531 69 390 -19 475 11 b 544 0 532 46 538 22 l 744 0 b 719 153 726 29 719 96 l 719 533 b 406 738 719 667 615 738 z m 242 204 b 403 317 242 279 301 304 b 522 351 469 325 504 335 l 522 275 b 363 113 522 169 468 113 b 242 204 276 113 242 147 z m 153 1004 l 367 807 l 504 807 l 371 1004 z "},"å":{"ha":797,"x_min":0,"x_max":0,"o":"m 406 738 b 67 497 204 738 75 654 l 264 497 b 396 606 271 572 314 606 b 522 510 463 606 522 592 b 438 435 522 467 496 447 b 210 399 376 422 283 418 b 44 196 94 368 44 300 b 289 -19 44 57 142 -19 b 531 69 390 -19 475 11 b 544 0 532 46 538 22 l 744 0 b 719 153 726 29 719 96 l 719 533 b 406 738 719 667 615 738 z m 242 204 b 403 317 242 279 301 304 b 522 351 469 325 504 335 l 522 275 b 363 113 522 169 468 113 b 242 204 276 113 242 147 z m 400 1081 b 229 908 303 1081 229 1003 b 399 742 229 828 297 742 b 569 908 494 742 569 821 b 400 1081 569 1006 493 1081 z m 311 908 b 399 1008 311 967 346 1008 b 488 908 458 1008 488 958 b 399 814 488 853 446 814 b 311 908 347 814 311 857 z "},"ã":{"ha":797,"x_min":0,"x_max":0,"o":"m 406 738 b 67 497 204 738 75 654 l 264 497 b 396 606 271 572 314 606 b 522 510 463 606 522 592 b 438 435 522 467 496 447 b 210 399 376 422 283 418 b 44 196 94 368 44 300 b 289 -19 44 57 142 -19 b 531 69 390 -19 475 11 b 544 0 532 46 538 22 l 744 0 b 719 153 726 29 719 96 l 719 533 b 406 738 719 667 615 738 z m 242 204 b 403 317 242 279 301 304 b 522 351 469 325 504 335 l 522 275 b 363 113 522 169 468 113 b 242 204 276 113 242 147 z m 318 992 b 144 822 203 992 163 908 l 229 822 b 292 881 240 863 251 881 b 496 833 342 881 425 833 b 654 992 582 835 622 876 l 558 992 b 503 943 558 957 532 943 b 318 992 433 943 383 992 z "},"ç":{"ha":797,"x_min":0,"x_max":0,"o":"m 419 738 b 53 349 193 738 53 581 b 368 -17 53 161 167 4 l 299 -114 l 328 -147 b 381 -136 349 -139 364 -136 b 439 -182 415 -136 439 -154 b 376 -229 439 -215 411 -229 b 267 -204 342 -229 299 -218 l 238 -271 b 399 -301 296 -293 342 -301 b 572 -172 508 -301 572 -254 b 453 -65 572 -106 526 -65 b 397 -75 436 -65 414 -68 l 394 -72 l 433 -19 b 761 275 625 -12 738 103 l 571 275 b 414 129 558 183 504 129 b 250 356 294 129 250 244 b 418 589 250 465 294 589 b 564 465 503 589 551 547 l 757 465 b 419 738 747 639 600 738 z "},"é":{"ha":797,"x_min":0,"x_max":0,"o":"m 407 738 b 40 358 190 738 40 575 b 407 -19 40 138 179 -19 b 743 222 579 -19 689 60 l 569 222 b 413 129 554 172 488 129 b 238 311 304 129 243 188 l 756 311 l 757 349 b 740 475 757 383 753 428 b 407 738 701 622 590 738 z m 238 436 b 400 589 246 531 307 589 b 558 436 492 589 539 544 z m 428 1004 l 294 807 l 432 807 l 646 1004 z "},"ê":{"ha":797,"x_min":0,"x_max":0,"o":"m 407 738 b 40 358 190 738 40 575 b 407 -19 40 138 179 -19 b 743 222 579 -19 689 60 l 569 222 b 413 129 554 172 488 129 b 238 311 304 129 243 188 l 756 311 l 757 349 b 740 475 757 383 753 428 b 407 738 701 622 590 738 z m 238 436 b 400 589 246 531 307 589 b 558 436 492 589 539 544 z m 310 1004 l 156 807 l 306 807 l 394 919 l 481 807 l 643 807 l 490 1004 z "},"ë":{"ha":797,"x_min":0,"x_max":0,"o":"m 407 738 b 40 358 190 738 40 575 b 407 -19 40 138 179 -19 b 743 222 579 -19 689 60 l 569 222 b 413 129 554 172 488 129 b 238 311 304 129 243 188 l 756 311 l 757 349 b 740 475 757 383 753 428 b 407 738 701 622 590 738 z m 238 436 b 400 589 246 531 307 589 b 558 436 492 589 539 544 z m 163 992 l 163 829 l 350 829 l 350 992 z m 449 992 l 449 829 l 636 829 l 636 992 z "},"è":{"ha":797,"x_min":0,"x_max":0,"o":"m 407 738 b 40 358 190 738 40 575 b 407 -19 40 138 179 -19 b 743 222 579 -19 689 60 l 569 222 b 413 129 554 172 488 129 b 238 311 304 129 243 188 l 756 311 l 757 349 b 740 475 757 383 753 428 b 407 738 701 622 590 738 z m 238 436 b 400 589 246 531 307 589 b 558 436 492 589 539 544 z m 153 1004 l 367 807 l 504 807 l 371 1004 z "},"í":{"ha":358,"x_min":0,"x_max":0,"o":"m 81 718 l 81 0 l 278 0 l 278 718 z m 208 1004 l 75 807 l 213 807 l 426 1004 z "},"î":{"ha":358,"x_min":0,"x_max":0,"o":"m 81 718 l 81 0 l 278 0 l 278 718 z m 90 1004 l -64 807 l 86 807 l 175 919 l 261 807 l 424 807 l 271 1004 z "},"ï":{"ha":358,"x_min":0,"x_max":0,"o":"m 81 718 l 81 0 l 278 0 l 278 718 z m -57 992 l -57 829 l 131 829 l 131 992 z m 229 992 l 229 829 l 417 829 l 417 992 z "},"ì":{"ha":358,"x_min":0,"x_max":0,"o":"m 81 718 l 81 0 l 278 0 l 278 718 z m -67 1004 l 147 807 l 285 807 l 151 1004 z "},"ñ":{"ha":824,"x_min":0,"x_max":0,"o":"m 488 738 b 267 618 394 738 314 694 l 263 618 l 263 718 l 75 718 l 75 0 l 272 0 l 272 374 b 425 582 272 501 303 582 b 551 407 517 582 551 525 l 551 0 l 749 0 l 749 447 b 488 738 749 649 669 738 z m 331 992 b 157 822 215 992 175 908 l 242 822 b 304 881 253 863 264 881 b 508 833 354 881 438 833 b 667 992 594 835 635 876 l 571 992 b 515 943 571 957 544 943 b 331 992 446 943 396 992 z "},"ó":{"ha":849,"x_min":0,"x_max":0,"o":"m 424 738 b 53 358 199 738 53 588 b 424 -19 53 132 197 -19 b 796 358 644 -19 796 126 b 424 738 796 586 651 738 z m 250 358 b 422 589 250 506 313 589 b 599 358 558 589 599 475 b 424 129 599 217 540 129 b 250 358 311 129 250 213 z m 453 1004 l 319 807 l 457 807 l 671 1004 z "},"ô":{"ha":849,"x_min":0,"x_max":0,"o":"m 424 738 b 53 358 199 738 53 588 b 424 -19 53 132 197 -19 b 796 358 644 -19 796 126 b 424 738 796 586 651 738 z m 250 358 b 422 589 250 506 313 589 b 599 358 558 589 599 475 b 424 129 599 217 540 129 b 250 358 311 129 250 213 z m 335 1004 l 181 807 l 331 807 l 419 919 l 506 807 l 668 807 l 515 1004 z "},"ö":{"ha":849,"x_min":0,"x_max":0,"o":"m 424 738 b 53 358 199 738 53 588 b 424 -19 53 132 197 -19 b 796 358 644 -19 796 126 b 424 738 796 586 651 738 z m 250 358 b 422 589 250 506 313 589 b 599 358 558 589 599 475 b 424 129 599 217 540 129 b 250 358 311 129 250 213 z m 188 992 l 188 829 l 375 829 l 375 992 z m 474 992 l 474 829 l 661 829 l 661 992 z "},"ò":{"ha":849,"x_min":0,"x_max":0,"o":"m 424 738 b 53 358 199 738 53 588 b 424 -19 53 132 197 -19 b 796 358 644 -19 796 126 b 424 738 796 586 651 738 z m 250 358 b 422 589 250 506 313 589 b 599 358 558 589 599 475 b 424 129 599 217 540 129 b 250 358 311 129 250 213 z m 178 1004 l 392 807 l 529 807 l 396 1004 z "},"õ":{"ha":849,"x_min":0,"x_max":0,"o":"m 424 738 b 53 358 199 738 53 588 b 424 -19 53 132 197 -19 b 796 358 644 -19 796 126 b 424 738 796 586 651 738 z m 250 358 b 422 589 250 506 313 589 b 599 358 558 589 599 475 b 424 129 599 217 540 129 b 250 358 311 129 250 213 z m 343 992 b 169 822 228 992 188 908 l 254 822 b 317 881 265 863 276 881 b 521 833 367 881 450 833 b 679 992 607 835 647 876 l 583 992 b 528 943 583 957 557 943 b 343 992 458 943 408 992 z "},"š":{"ha":746,"x_min":0,"x_max":0,"o":"m 369 738 b 57 507 168 738 57 660 b 292 314 57 406 125 349 b 508 204 447 282 508 257 b 379 113 508 142 446 113 b 228 233 297 113 228 153 l 40 233 b 378 -19 46 64 182 -19 b 706 231 546 -19 706 46 b 650 360 706 285 688 326 b 408 447 607 396 554 418 b 254 539 297 469 254 493 b 364 606 254 582 288 606 b 499 508 446 606 493 578 l 686 508 b 369 738 674 657 564 738 z m 129 1004 l 283 807 l 464 807 l 617 1004 l 464 1004 l 374 892 l 285 1004 z "},"ú":{"ha":824,"x_min":0,"x_max":0,"o":"m 75 718 l 75 272 b 336 -19 75 75 149 -19 b 557 100 424 -19 507 19 l 561 100 l 561 0 l 749 0 l 749 718 l 551 718 l 551 340 b 399 136 551 199 507 136 b 272 311 301 136 272 201 l 272 718 z m 440 1004 l 307 807 l 444 807 l 658 1004 z "},"û":{"ha":824,"x_min":0,"x_max":0,"o":"m 75 718 l 75 272 b 336 -19 75 75 149 -19 b 557 100 424 -19 507 19 l 561 100 l 561 0 l 749 0 l 749 718 l 551 718 l 551 340 b 399 136 551 199 507 136 b 272 311 301 136 272 201 l 272 718 z m 322 1004 l 168 807 l 318 807 l 407 919 l 493 807 l 656 807 l 503 1004 z "},"ü":{"ha":824,"x_min":0,"x_max":0,"o":"m 75 718 l 75 272 b 336 -19 75 75 149 -19 b 557 100 424 -19 507 19 l 561 100 l 561 0 l 749 0 l 749 718 l 551 718 l 551 340 b 399 136 551 199 507 136 b 272 311 301 136 272 201 l 272 718 z m 175 992 l 175 829 l 363 829 l 363 992 z m 461 992 l 461 829 l 649 829 l 649 992 z "},"ù":{"ha":824,"x_min":0,"x_max":0,"o":"m 75 718 l 75 272 b 336 -19 75 75 149 -19 b 557 100 424 -19 507 19 l 561 100 l 561 0 l 749 0 l 749 718 l 551 718 l 551 340 b 399 136 551 199 507 136 b 272 311 301 136 272 201 l 272 718 z m 165 1004 l 379 807 l 517 807 l 383 1004 z "},"ý":{"ha":721,"x_min":0,"x_max":0,"o":"m -8 718 l 244 44 b 253 0 251 25 253 13 b 165 -90 253 -51 221 -90 b 61 -83 138 -90 103 -87 l 61 -246 b 185 -253 103 -250 138 -253 b 429 -90 318 -253 388 -203 l 729 718 l 525 718 l 368 226 l 365 226 l 203 718 z m 389 1004 l 256 807 l 393 807 l 607 1004 z "},"ÿ":{"ha":721,"x_min":0,"x_max":0,"o":"m -8 718 l 244 44 b 253 0 251 25 253 13 b 165 -90 253 -51 221 -90 b 61 -83 138 -90 103 -87 l 61 -246 b 185 -253 103 -250 138 -253 b 429 -90 318 -253 388 -203 l 729 718 l 525 718 l 368 226 l 365 226 l 203 718 z m 124 992 l 124 829 l 311 829 l 311 992 z m 410 992 l 410 829 l 597 829 l 597 992 z "},"ž":{"ha":721,"x_min":0,"x_max":0,"o":"m 58 718 l 58 569 l 404 569 l 31 149 l 31 0 l 690 0 l 690 149 l 290 149 l 664 569 l 664 718 z m 117 1004 l 271 807 l 451 807 l 604 1004 l 451 1004 l 361 892 l 272 1004 z "},"∆":{"ha":946,"x_min":0,"x_max":0,"o":"m 364 992 l -10 0 l 956 0 l 588 992 z m 475 747 l 667 183 l 275 183 l 472 747 z "},"Ω":{"ha":1075,"x_min":0,"x_max":0,"o":"m 538 1015 b 53 546 261 1015 53 817 b 239 185 53 386 121 258 l 239 178 l 49 178 l 49 0 l 474 0 l 474 164 b 271 533 318 278 271 386 b 538 832 271 724 374 832 b 804 533 699 832 804 726 b 600 164 804 369 746 264 l 600 0 l 1024 0 l 1024 178 l 828 178 l 828 185 b 1022 546 954 268 1022 396 b 538 1015 1022 826 825 1015 z "},"μ":{"ha":824,"x_min":0,"x_max":0,"o":"m 75 718 l 75 -253 l 272 -253 l 272 14 b 376 -19 303 -15 342 -19 b 557 100 415 -19 504 15 l 561 100 l 561 0 l 749 0 l 749 718 l 551 718 l 551 340 b 399 136 551 199 507 136 b 272 313 306 136 272 194 l 272 718 z "},"π":{"ha":961,"x_min":0,"x_max":0,"o":"m 21 718 l 21 569 l 165 569 l 165 0 l 363 0 l 363 569 l 583 569 l 583 139 b 754 -19 583 33 635 -19 b 883 8 806 -19 843 -11 l 883 136 b 838 131 871 133 854 131 b 781 193 794 131 781 150 l 781 569 l 933 569 l 933 718 z "},"€":{"ha":772,"x_min":0,"x_max":0,"o":"m 547 1003 b 135 632 301 1003 171 822 l 64 632 l 21 532 l 122 532 b 121 492 121 515 121 500 l 121 474 l 65 474 l 22 374 l 129 374 b 536 -24 165 143 296 -24 b 751 32 619 -24 692 -4 l 753 242 b 539 154 679 183 607 154 b 333 374 432 154 363 228 l 575 374 l 618 474 l 322 474 b 324 532 322 486 324 532 l 635 532 l 678 632 l 339 632 b 533 822 371 758 436 822 b 715 760 589 822 650 801 l 800 933 b 547 1003 710 979 626 1003 z "},"ℓ":{"ha":694,"x_min":0,"x_max":0,"o":"m 415 1001 b 165 726 276 1001 165 892 l 165 399 l 19 279 l 88 175 l 90 175 l 167 242 l 167 185 b 394 -19 167 72 243 -19 b 633 74 478 -19 556 8 l 568 174 l 565 174 b 443 121 519 139 478 121 b 358 213 390 121 358 157 l 358 368 b 625 793 543 524 625 656 b 415 1001 625 919 540 1001 z m 358 768 b 414 874 358 824 381 874 b 468 782 446 874 468 833 b 358 531 468 693 432 610 z "},"℮":{"ha":1069,"x_min":0,"x_max":0,"o":"m 533 992 b 61 485 240 992 61 764 b 533 -19 61 201 247 -19 b 951 228 715 -19 833 44 l 888 267 b 533 46 799 118 692 46 b 268 154 429 46 342 82 l 268 485 l 1008 485 b 533 992 1008 772 824 992 z m 268 818 b 531 928 346 894 436 928 b 801 818 638 928 726 889 l 801 553 l 268 553 z "},"∂":{"ha":794,"x_min":0,"x_max":0,"o":"m 351 1001 b 94 899 272 1001 192 982 l 192 788 b 360 861 251 839 300 861 b 550 560 482 861 550 744 l 550 549 b 364 615 492 593 432 615 b 58 304 183 615 58 481 b 376 -18 58 117 186 -18 b 735 497 607 -18 735 156 b 351 1001 735 781 618 1001 z m 235 294 b 392 481 235 404 299 481 b 549 404 451 481 506 451 l 549 364 b 379 117 549 238 489 117 b 235 294 288 117 235 194 z "},"∏":{"ha":1040,"x_min":0,"x_max":0,"o":"m 76 1092 l 76 -297 l 261 -297 l 261 917 l 779 917 l 779 -297 l 963 -297 l 963 1092 z "},"∑":{"ha":935,"x_min":0,"x_max":0,"o":"m 54 1092 l 54 939 l 447 406 l 38 -144 l 38 -297 l 897 -297 l 897 -122 l 275 -122 l 665 407 l 300 917 l 881 917 l 881 1092 z "},"∙":{"ha":386,"x_min":0,"x_max":0,"o":"m 194 517 b 76 399 132 517 76 465 b 196 282 76 333 132 282 b 311 399 257 282 311 339 b 194 517 311 463 258 517 z "},"√":{"ha":792,"x_min":0,"x_max":0,"o":"m 613 1092 l 388 -12 l 225 342 l -12 233 l 56 88 l 129 124 l 333 -297 l 503 -297 l 806 1092 z "},"∞":{"ha":1178,"x_min":0,"x_max":0,"o":"m 317 643 b 63 372 160 643 63 529 b 322 99 63 211 165 99 b 589 257 411 99 483 132 b 860 96 686 139 769 96 b 1115 374 1015 96 1115 213 b 861 643 1115 528 1018 643 b 589 474 761 643 678 593 b 317 643 492 599 417 643 z m 682 367 b 856 485 754 453 807 485 b 964 369 919 485 964 439 b 860 256 964 303 922 256 b 682 367 799 256 743 294 z m 214 369 b 318 483 214 432 254 483 b 494 367 369 483 429 443 b 321 257 439 296 378 257 b 214 369 254 257 214 304 z "},"∫":{"ha":872,"x_min":0,"x_max":0,"o":"m 556 1089 b 383 1019 481 1089 421 1065 b 317 715 338 963 317 881 l 317 46 b 325 -172 317 15 325 -153 b 299 -214 325 -201 315 -214 b 271 -174 285 -214 278 -201 b 194 -93 257 -114 235 -93 b 107 -172 151 -93 107 -121 b 276 -296 107 -253 201 -296 b 508 51 436 -296 508 -186 l 508 715 b 500 957 508 765 500 933 b 526 1007 500 992 510 1007 b 557 963 539 1007 546 1000 b 636 886 571 918 588 886 b 721 975 686 886 721 924 b 556 1089 721 1051 625 1089 z "},"≈":{"ha":833,"x_min":0,"x_max":0,"o":"m 271 604 b 60 379 144 604 72 525 l 176 379 b 261 463 185 439 215 463 b 406 419 306 463 347 446 b 561 375 474 389 515 375 b 774 603 685 375 760 450 l 657 603 b 572 517 649 543 619 517 b 422 563 536 517 496 531 b 271 604 350 593 310 604 z m 271 307 b 60 82 144 307 72 228 l 176 82 b 261 165 185 142 215 165 b 406 122 296 165 333 156 b 561 78 482 88 522 78 b 774 306 688 78 760 156 l 657 306 b 572 219 649 246 618 219 b 432 261 538 219 496 233 b 271 307 367 289 318 307 z "},"≠":{"ha":833,"x_min":0,"x_max":0,"o":"m 563 760 l 463 572 l 67 572 l 67 428 l 382 428 l 307 274 l 67 274 l 67 129 l 221 129 l 153 3 l 274 -57 l 372 129 l 768 129 l 768 274 l 453 274 l 529 428 l 768 428 l 768 572 l 614 572 l 683 700 z "},"≤":{"ha":833,"x_min":0,"x_max":0,"o":"m 768 714 l 67 517 l 67 367 l 768 169 l 768 326 l 274 442 l 768 557 z m 67 149 l 67 0 l 768 0 l 768 149 z "},"≥":{"ha":833,"x_min":0,"x_max":0,"o":"m 67 556 l 561 440 l 67 325 l 67 169 l 768 367 l 768 517 l 67 714 z m 67 149 l 67 0 l 768 0 l 768 149 z "},"◊":{"ha":824,"x_min":0,"x_max":0,"o":"m 329 1038 l 72 494 l 328 -49 l 493 -49 l 751 494 l 493 1038 z m 411 857 l 567 494 l 411 131 l 256 494 z "}," ":{"ha":386,"x_min":0,"x_max":0,"o":""},"­":{"ha":565,"x_min":0,"x_max":0,"o":"m 74 464 l 74 294 l 492 294 l 492 464 z "},"ˉ":{"ha":360,"x_min":0,"x_max":0,"o":"m -79 960 l -79 856 l 439 856 l 439 960 z "},"Ω":{"ha":1075,"x_min":0,"x_max":0,"o":"m 538 1015 b 53 546 261 1015 53 817 b 239 185 53 386 121 258 l 239 178 l 49 178 l 49 0 l 474 0 l 474 164 b 271 533 318 278 271 386 b 538 832 271 724 374 832 b 804 533 699 832 804 726 b 600 164 804 369 746 264 l 600 0 l 1024 0 l 1024 178 l 828 178 l 828 185 b 1022 546 954 268 1022 396 b 538 1015 1022 826 825 1015 z "},"∕":{"ha":232,"x_min":0,"x_max":0,"o":"m 344 1003 l -231 -31 l -110 -31 l 463 1003 z "}}}
